<svg id="visual" viewBox="0 0 960 540" width="960" height="540" xmlns="http://www.w3.org/2000/svg" xmlns:xlink="http://www.w3.org/1999/xlink" version="1.1"><rect x="0" y="0" width="960" height="540" fill="#ffffff"></rect><path d="M0 179L80 168.8C160 158.7 320 138.3 480 134.3C640 130.3 800 142.7 880 148.8L960 155L960 0L880 0C800 0 640 0 480 0C320 0 160 0 80 0L0 0Z" fill="#00822e"></path><path d="M0 118L80 114.5C160 111 320 104 480 107.8C640 111.7 800 126.3 880 133.7L960 141L960 0L880 0C800 0 640 0 480 0C320 0 160 0 80 0L0 0Z" fill="#3a972f"></path><path d="M0 95L80 98.3C160 101.7 320 108.3 480 105.8C640 103.3 800 91.7 880 85.8L960 80L960 0L880 0C800 0 640 0 480 0C320 0 160 0 80 0L0 0Z" fill="#5fab2e"></path><path d="M0 96L80 96.2C160 96.3 320 96.7 480 95.2C640 93.7 800 90.3 880 88.7L960 87L960 0L880 0C800 0 640 0 480 0C320 0 160 0 80 0L0 0Z" fill="#83bf2d"></path><path d="M0 65L80 65.3C160 65.7 320 66.3 480 67.3C640 68.3 800 69.7 880 70.3L960 71L960 0L880 0C800 0 640 0 480 0C320 0 160 0 80 0L0 0Z" fill="#a9d32c"></path><path d="M0 39L80 36.5C160 34 320 29 480 28.8C640 28.7 800 33.3 880 35.7L960 38L960 0L880 0C800 0 640 0 480 0C320 0 160 0 80 0L0 0Z" fill="#d1e62c"></path></svg>